<?xml version="1.0" encoding="UTF-8" standalone="no"?>
<!-- Created with Inkscape (http://www.inkscape.org/) -->

<svg
   xmlns:dc="http://purl.org/dc/elements/1.1/"
   xmlns:cc="http://creativecommons.org/ns#"
   xmlns:rdf="http://www.w3.org/1999/02/22-rdf-syntax-ns#"
   xmlns:svg="http://www.w3.org/2000/svg"
   xmlns="http://www.w3.org/2000/svg"
   xmlns:sodipodi="http://sodipodi.sourceforge.net/DTD/sodipodi-0.dtd"
   xmlns:inkscape="http://www.inkscape.org/namespaces/inkscape"
   width="256"
   height="256"
   viewBox="0 0 67.733335 67.733335"
   version="1.1"
   id="svg4521"
   inkscape:version="0.92.1 r15371"
   sodipodi:docname="dropbot-info-icon.svg"
   inkscape:export-filename="C:\Users\chris\Documents\GitHub\dropbot.py\.conda-recipe\dropbot-info-icon.png"
   inkscape:export-xdpi="96"
   inkscape:export-ydpi="96">
  <defs
     id="defs4515" />
  <sodipodi:namedview
     id="base"
     pagecolor="#ffffff"
     bordercolor="#666666"
     borderopacity="1.0"
     inkscape:pageopacity="0.0"
     inkscape:pageshadow="2"
     inkscape:zoom="2.8284271"
     inkscape:cx="238.63236"
     inkscape:cy="14.438326"
     inkscape:document-units="mm"
     inkscape:current-layer="layer1"
     showgrid="false"
     units="px"
     inkscape:window-width="3200"
     inkscape:window-height="1706"
     inkscape:window-x="-11"
     inkscape:window-y="1609"
     inkscape:window-maximized="1" />
  <metadata
     id="metadata4518">
    <rdf:RDF>
      <cc:Work
         rdf:about="">
        <dc:format>image/svg+xml</dc:format>
        <dc:type
           rdf:resource="http://purl.org/dc/dcmitype/StillImage" />
        <dc:title></dc:title>
      </cc:Work>
    </rdf:RDF>
  </metadata>
  <g
     inkscape:label="Layer 1"
     inkscape:groupmode="layer"
     id="layer1"
     transform="translate(0,-229.26662)">
    <g
       id="g5124"
       transform="translate(-74.083315,-1.4114583e-5)">
      <circle
         r="31.523214"
         cy="263.1333"
         cx="107.94998"
         id="path5076"
         style="opacity:1;vector-effect:none;fill:#265dab;fill-opacity:1;stroke:none;stroke-width:0;stroke-linecap:butt;stroke-linejoin:miter;stroke-miterlimit:4;stroke-dasharray:none;stroke-dashoffset:0;stroke-opacity:1;marker:none" />
      <path
         id="path5076-0"
         d="m 104.00967,238.21801 c -0.73882,0 -1.31361,0.57479 -1.31361,1.31361 v 6.56756 c 0,0.73883 0.57479,1.3131 1.31361,1.3131 h 7.88067 c 0.73882,0 1.31361,-0.57427 1.31361,-1.3131 v -6.56756 c 0,-0.73882 -0.57479,-1.31361 -1.31361,-1.31361 z m -5.253937,14.44821 c -0.73883,0 -1.31362,0.57479 -1.31362,1.31362 v 6.56756 c 0,0.73882 0.57479,1.3131 1.31362,1.3131 h 3.940327 v 13.13459 h -3.940327 c -0.73883,0 -1.31362,0.57479 -1.31362,1.31362 v 6.56756 c 0,0.73882 0.57479,1.31309 1.31362,1.31309 h 18.388547 c 0.73883,0 1.31362,-0.57427 1.31362,-1.31309 v -6.56756 c 0,-0.73883 -0.57479,-1.31362 -1.31362,-1.31362 h -3.94033 v -21.01525 c 0,-0.73883 -0.57479,-1.31362 -1.31361,-1.31362 z"
         style="opacity:1;vector-effect:none;fill:#ffffff;fill-opacity:1;stroke:none;stroke-width:0;stroke-linecap:butt;stroke-linejoin:miter;stroke-miterlimit:4;stroke-dasharray:none;stroke-dashoffset:0;stroke-opacity:1;marker:none"
         inkscape:connector-curvature="0" />
    </g>
  </g>
</svg>
