<?xml version="1.0" encoding="UTF-8" standalone="no"?>
<!-- Created with Inkscape (http://www.inkscape.org/) -->

<svg
   xmlns:dc="http://purl.org/dc/elements/1.1/"
   xmlns:cc="http://creativecommons.org/ns#"
   xmlns:rdf="http://www.w3.org/1999/02/22-rdf-syntax-ns#"
   xmlns:svg="http://www.w3.org/2000/svg"
   xmlns="http://www.w3.org/2000/svg"
   xmlns:sodipodi="http://sodipodi.sourceforge.net/DTD/sodipodi-0.dtd"
   xmlns:inkscape="http://www.inkscape.org/namespaces/inkscape"
   width="67.73333mm"
   height="67.73333mm"
   viewBox="0 0 67.73333 67.73333"
   version="1.1"
   id="svg8"
   inkscape:version="0.92.1 r15371"
   sodipodi:docname="firmware-upload-icon.svg">
  <defs
     id="defs2" />
  <sodipodi:namedview
     id="base"
     pagecolor="#ffffff"
     bordercolor="#666666"
     borderopacity="1.0"
     inkscape:pageopacity="0.0"
     inkscape:pageshadow="2"
     inkscape:zoom="1.5591518"
     inkscape:cx="11.625822"
     inkscape:cy="292.74549"
     inkscape:document-units="mm"
     inkscape:current-layer="text4487"
     showgrid="false"
     inkscape:window-width="3200"
     inkscape:window-height="1706"
     inkscape:window-x="-11"
     inkscape:window-y="1609"
     inkscape:window-maximized="1"
     fit-margin-top="0"
     fit-margin-left="0"
     fit-margin-right="0"
     fit-margin-bottom="0" />
  <metadata
     id="metadata5">
    <rdf:RDF>
      <cc:Work
         rdf:about="">
        <dc:format>image/svg+xml</dc:format>
        <dc:type
           rdf:resource="http://purl.org/dc/dcmitype/StillImage" />
        <dc:title></dc:title>
      </cc:Work>
    </rdf:RDF>
  </metadata>
  <g
     inkscape:label="Layer 1"
     inkscape:groupmode="layer"
     id="layer1"
     transform="translate(-98.42424,-131.88486)">
    <g
       aria-label=""
       style="font-style:normal;font-variant:normal;font-weight:normal;font-stretch:normal;font-size:10.58333302px;line-height:1.25;font-family:FontAwesome;-inkscape-font-specification:FontAwesome;letter-spacing:0px;word-spacing:0px;fill:#000000;fill-opacity:1;stroke:none;stroke-width:0.26458332"
       id="text4487">
      <rect
         style="opacity:1;vector-effect:none;fill:#cccccc;fill-opacity:1;stroke:none;stroke-width:0;stroke-linecap:butt;stroke-linejoin:miter;stroke-miterlimit:4;stroke-dasharray:none;stroke-dashoffset:0;stroke-opacity:1;marker:none"
         id="rect4499"
         width="67.73333"
         height="67.73333"
         x="98.42424"
         y="131.88486"
         ry="0.1" />
      <path
         d="m 146.90766,185.59246 c 0,1.14219 -0.94637,2.08855 -2.08855,2.08855 -1.14218,0 -2.08855,-0.94636 -2.08855,-2.08855 0,-1.14213 0.94637,-2.08848 2.08855,-2.08848 1.14218,0 2.08855,0.94635 2.08855,2.08848 z m 8.35406,0 c 0,1.14219 -0.94636,2.08855 -2.08849,2.08855 -1.14218,0 -2.08854,-0.94636 -2.08854,-2.08855 0,-1.14213 0.94636,-2.08848 2.08854,-2.08848 1.14213,0 2.08849,0.94635 2.08849,2.08848 z m 4.17703,-7.30979 c 0,-1.72955 -1.40321,-3.13282 -3.13276,-3.13282 h -13.93437 c -0.88109,2.41489 -3.19807,4.17709 -5.90657,4.17709 h -8.35412 c -2.70856,0 -5.02548,-1.7622 -5.90659,-4.17709 h -13.93435 c -1.72955,0 -3.13282,1.40327 -3.13282,3.13282 v 10.44261 c 0,1.72955 1.40327,3.13276 3.13282,3.13276 h 48.036 c 1.72955,0 3.13276,-1.40321 3.13276,-3.13276 z m -10.60577,-21.14629 c 0.32655,-0.7506 0.16299,-1.66429 -0.45697,-2.25172 l -14.61963,-14.61963 c -0.39177,-0.42437 -0.94637,-0.62003 -1.46853,-0.62003 -0.52216,0 -1.07687,0.1956 -1.46847,0.62003 l -14.61963,14.61963 c -0.62008,0.58743 -0.78325,1.50112 -0.45697,2.25172 0.32657,0.78319 1.07693,1.30529 1.92538,1.30529 h 8.35406 v 14.6197 c 0,1.14212 0.94641,2.08848 2.08854,2.08848 h 8.35412 c 1.14213,0 2.08849,-0.94636 2.08849,-2.08848 v -14.6197 h 8.35412 c 0.84845,0 1.59898,-0.52216 1.92532,-1.30529 z"
         style="fill:#265dab;stroke-width:1.46196568"
         id="path4496"
         inkscape:connector-curvature="0" />
    </g>
  </g>
</svg>
